<svg version="1.1" id="logo-7" xmlns="http://www.w3.org/2000/svg" x="0" y="0" viewBox="0 0 266.146 114.053" xml:space="preserve"><style>.st0{fill:#fff}.st2{fill:#8250d2}</style><path class="st0" d="M135.368 50.014l-16.033-35.999-17.174 38.557h8.758l8.416-18.894 8.415 18.894H143.368v-38.4h-8z"/><path d="M94.029 39.636a13.216 13.216 0 008.86-12.491c0-7.278-5.877-13.2-13.1-13.2H71.046v38.627h8V21.945h10.743c2.812 0 5.1 2.333 5.1 5.2s-2.288 5.2-5.1 5.2h-9.714l12.578 20.227h9.421l-8.045-12.936z" fill="#39c9c5"/><path class="st2" d="M226.13 66.654l-4.171-9.05-1.822 3.374h-10.273v-6.4h6.455l6.095-11.278 3.748 8.131 4.59-9.855 5.992 13.002h5.683v6.4h-9.781l-1.925-4.178z"/><path class="st0" d="M200.863 44.572h-12.717v-22.4h15.2v-8h-23.2v38.4h16.379z"/><path class="st0" d="M202.322 37.006l-5.045-8.739-5.045 8.739z"/><path class="st0" d="M74.699 83.37c0 2.812-2.288 5.1-5.1 5.1s-5.1-2.287-5.1-5.1v-25.1h-8v25.1c0 7.223 5.877 13.1 13.1 13.1s13.1-5.877 13.1-13.1v-25.1h-8v25.1z"/><path class="st0" d="M86.699 58.27h8v38.4h-8z"/><path class="st0" d="M106.699 58.27h-8v38.4h22.4v-8h-14.4z"/><path class="st0" d="M171.499 86.405l-19.2-30.4v48.665h8V83.653l19.2 30.4V62.269h-8z"/><path class="st0" d="M125.099 96.67h23.2v-8h-15.2v-22.4h15.2v-8h-23.2z"/><path class="st0" d="M147.733 81.097l-5.045-8.738-5.045 8.738z"/><path class="st2" d="M42.084 73.457H36.33c-1.904 0-3.512-1.646-3.512-3.594s1.608-3.594 3.512-3.594H52.5v-8H36.33c-6.348 0-11.512 5.201-11.512 11.594s5.164 11.594 11.512 11.594h5.755c1.904 0 3.511 1.646 3.511 3.595 0 1.948-1.608 3.594-3.511 3.594H22.976l4.338 8h14.77c6.347 0 11.511-5.201 11.511-11.594s-5.164-11.595-11.511-11.595z"/><path class="st0" d="M226.145 5.012l-39.999 73.761h8.993l31.006-57.178 31.007 57.178h8.994z"/><path class="st0" d="M200.863 44.572h-12.717v-22.4h15.2v-8h-23.2v38.4h16.379z"/><path class="st0" d="M59.483 45.618c1.835-3.666 3.695-9.83 2.031-17.918l6.711-25.118C68.669.92 66.992-.516 65.418.178L46.463 8.541c-3.719-1.828-7.898-2.859-12.315-2.859s-8.595 1.031-12.315 2.859L2.879.179C1.306-.515-.371.921.072 2.583L6.783 27.7c-1.664 8.088.197 14.252 2.032 17.918 2.971 5.936 7.638 7.336 10.691 6.872 5.328-.811 8.664-7.06 7.497-13.678-1.167-6.618-7.083-12.257-13.08-9.908 2.172-9.158 10.413-15.993 20.226-15.993s18.054 6.835 20.226 15.993c-5.997-2.35-11.913 3.289-13.08 9.908-1.167 6.618 2.169 12.867 7.497 13.678 3.053.465 7.719-.935 10.691-6.872z"/><path class="st0" d="M164.635 29.36h-5.755c-1.904 0-3.512-1.646-3.512-3.594s1.608-3.594 3.512-3.594h17.266v-8H158.88c-6.348 0-11.512 5.201-11.512 11.594s5.164 11.594 11.512 11.594h5.755c1.904 0 3.511 1.646 3.511 3.595 0 1.948-1.608 3.594-3.511 3.594h-17.266v8h17.266c6.347 0 11.511-5.201 11.511-11.594 0-6.394-5.164-11.595-11.511-11.595z"/></svg>