<svg xmlns="http://www.w3.org/2000/svg" viewBox="0 0 68.297 52.572"><path d="M59.483 45.618c1.835-3.666 3.695-9.83 2.031-17.918l6.711-25.118C68.669.92 66.992-.516 65.418.178L46.463 8.541c-3.719-1.828-7.898-2.859-12.315-2.859s-8.595 1.031-12.315 2.859L2.879.179C1.306-.515-.371.921.072 2.583L6.783 27.7c-1.664 8.088.197 14.252 2.032 17.918 2.971 5.936 7.638 7.336 10.691 6.872 5.328-.811 8.664-7.06 7.497-13.678-1.167-6.618-7.083-12.257-13.08-9.908 2.172-9.158 10.413-15.993 20.226-15.993s18.054 6.835 20.226 15.993c-5.997-2.35-11.913 3.289-13.08 9.908-1.167 6.618 2.169 12.867 7.497 13.678 3.053.465 7.719-.935 10.691-6.872z" fill="#2cc"/></svg>