<svg version="1.1" id="レイヤー_1" xmlns="http://www.w3.org/2000/svg" x="0" y="0" viewBox="0 0 314.123 25.488" xml:space="preserve"><style>.st0{fill:#fff}</style><path class="st0" d="M17.062 25.164h4.067L25.772.324h-4.391L18.61 18.072 14.866.324h-3.96L7.163 18.072 4.391.324H0l4.643 24.84h4.068l4.175-18 4.176 18z"/><path class="st0" d="M35.599 20.484c-.54 1.044-1.044 1.692-2.628 1.692-2.196 0-2.628-2.268-2.628-5.076h8.279v-1.98c0-5.328-1.944-8.28-6.083-8.28-3.851 0-6.047 2.772-6.047 8.064v2.448c0 4.788 2.088 8.136 6.515 8.136 2.664 0 4.319-.9 5.399-3.096l-2.807-1.908zm-3.024-10.296c1.44 0 2.196 1.296 2.232 3.96h-4.463c.108-2.448.684-3.96 2.231-3.96z"/><path class="st0" d="M48.665 19.872c0 3.6 2.16 5.616 5.111 5.616 1.692 0 2.628-.612 3.276-1.98v1.656h3.78V13.068c0-4.788-2.268-6.228-6.047-6.228-3.024 0-4.679.864-5.795 2.988l2.7 1.908c.648-1.296 1.368-1.584 2.772-1.584 2.124 0 2.592.612 2.592 2.88v1.512h-2.736c-3.134 0-5.653 1.476-5.653 5.328zm8.386-1.512c0 3.132-.828 3.852-2.556 3.852-1.296 0-2.052-.684-2.052-2.34 0-1.584.72-2.376 2.268-2.376h2.34v.864z"/><path class="st0" d="M75.228 9.504c-.9-1.764-2.196-2.664-3.995-2.664-1.584 0-2.556.792-3.096 1.728V7.164h-3.779v18h3.851V13.968c0-2.268.792-3.708 2.268-3.708.936 0 1.476.54 1.908 1.332l2.843-2.088z"/><path class="st0" d="M85.019 20.484c-.54 1.044-1.044 1.692-2.628 1.692-2.196 0-2.628-2.268-2.628-5.076h8.279v-1.98c0-5.328-1.944-8.28-6.083-8.28-3.851 0-6.047 2.772-6.047 8.064v2.448c0 4.788 2.088 8.136 6.515 8.136 2.664 0 4.319-.9 5.399-3.096l-2.807-1.908zm-3.024-10.296c1.44 0 2.196 1.296 2.232 3.96h-4.463c.107-2.448.684-3.96 2.231-3.96z"/><path class="st0" d="M114.93 25.164l-4.211-10.8c2.232-1.008 3.527-3.204 3.527-6.624 0-4.932-2.916-7.416-7.595-7.416h-7.235v24.84h4.175v-10.08h3.132l3.672 10.08h4.535zm-11.338-13.68v-7.56h2.664c2.52 0 3.815 1.008 3.815 3.816s-1.296 3.744-3.815 3.744h-2.664z"/><path class="st0" d="M120.185 25.164l1.26-5.148h6.659l1.296 5.148h4.427L126.844.324h-4.103l-6.947 24.84h4.391zm4.643-18.54l2.376 9.792h-4.823l2.447-9.792z"/><path class="st0" d="M140.702.324h-4.175v24.84h4.175V.324z"/><path class="st0" d="M159.167 4.068C157.655 1.296 155.28 0 152.04 0c-4.859 0-7.019 3.132-7.019 6.876 0 4.212 2.16 6.408 6.083 7.524 3.312.936 4.104 2.16 4.104 4.14 0 1.8-.72 3.312-3.132 3.312-2.124 0-3.168-.9-4.355-2.664l-3.204 2.232c1.764 2.772 4.283 4.068 7.811 4.068 4.823 0 7.055-3.42 7.055-7.128 0-4.284-1.944-6.228-6.191-7.416-2.7-.756-3.995-1.692-3.995-4.068 0-2.088.936-3.24 2.952-3.24 1.98 0 3.024.972 3.924 2.664l3.094-2.232z"/><path class="st0" d="M162.982.324v24.84h12.634v-3.6h-8.459v-7.452h7.559v-3.6h-7.559V3.96h8.459V.324h-12.634z"/><path class="st0" d="M188.754 25.164l1.26-5.148h6.659l1.296 5.148h4.427L195.413.324h-4.103l-6.947 24.84h4.391zm4.644-18.54l2.376 9.792h-4.823l2.447-9.792z"/><path class="st0" d="M225.973 4.068C224.461 1.296 222.085 0 218.846 0c-4.859 0-7.019 3.132-7.019 6.876 0 4.212 2.16 6.408 6.083 7.524 3.312.936 4.104 2.16 4.104 4.14 0 1.8-.72 3.312-3.132 3.312-2.124 0-3.168-.9-4.355-2.664l-3.204 2.232c1.764 2.772 4.283 4.068 7.811 4.068 4.823 0 7.055-3.42 7.055-7.128 0-4.284-1.944-6.228-6.191-7.416-2.7-.756-3.995-1.692-3.995-4.068 0-2.088.936-3.24 2.952-3.24 1.98 0 3.024.972 3.923 2.664l3.095-2.232z"/><path class="st0" d="M241.162.324V15.12c0 4.752-1.044 6.732-3.599 6.732-2.556 0-3.6-1.98-3.6-6.732V.324h-4.176V15.12c0 7.308 3.24 10.368 7.775 10.368 4.499 0 7.775-3.06 7.775-10.404V.324h-4.175z"/><path class="st0" d="M254.48.324h-4.175v24.84h4.175V.324z"/><path class="st0" d="M263.622.324h-4.176v24.84h12.634v-3.6h-8.459V.324z"/><path class="st0" d="M274.565.324v24.84h12.634v-3.6h-8.459v-7.452h7.559v-3.6h-7.559V3.96h8.459V.324h-12.634z"/><path class="st0" d="M301.597.324v14.94L294.254.324h-3.707v24.84h4.176V10.44l7.271 14.724h3.779V.324h-4.176z"/><path class="st0" d="M313.943.324h-3.923V18.36h3.923V.324zm.18 24.84h-4.283v-4.248h4.283v4.248z"/></svg>