<svg version="1.1" id="レイヤー_1" xmlns="http://www.w3.org/2000/svg" x="0" y="0" viewBox="0 0 768.748 284.626" xml:space="preserve"><style>.st0{fill:#fff}</style><path class="st0" d="M76.625 40.714C73.183 13.328 59.416 0 39.309 0 16.122 0 0 16.979 0 56.598v16.067c0 39.618 16.122 56.598 39.309 56.598 20.832 0 33.693-12.415 37.316-40.714H56.699c-2.174 15.336-7.065 22.274-17.39 22.274-12.318 0-18.296-11.319-18.296-38.158V56.598c0-27.203 5.978-38.158 18.296-38.158 9.963 0 15.397 6.938 17.39 22.274h19.926z"/><path class="st0" d="M132.777 129.262c23.187 0 39.309-16.979 39.309-56.598V56.598C172.086 16.979 155.964 0 132.777 0 109.59 0 93.468 16.979 93.468 56.598v16.067c.001 39.618 16.123 56.597 39.309 56.597zm0-111.005c12.318 0 18.296 11.137 18.296 38.34v16.067c0 27.203-5.978 38.34-18.296 38.34s-18.296-11.137-18.296-38.34V56.598c.001-27.204 5.979-38.341 18.296-38.341z"/><path class="st0" d="M217.005 1.643h-20.47v125.976h21.013V54.224l20.651 49.112h13.948l20.47-49.66v73.942h21.013V1.643h-20.651l-27.897 71.204-28.077-71.204z"/><path class="st0" d="M322.424 1.643v125.976h63.582v-18.257h-42.569V71.569h38.041V53.311h-38.041V20.083h42.569V1.643h-63.582z"/><path class="st0" d="M474.941 1.643h-21.013v125.976h21.013V1.643z"/><path class="st0" d="M560.801 1.643v75.768L523.847 1.643h-18.658v125.976h21.013V52.946l36.592 74.672h19.02V1.643h-21.013z"/><path class="st0" d="M599.742 1.643v18.44h28.078v107.536h21.013V20.083h28.078V1.643h-77.169z"/><path class="st0" d="M729.439 129.262c23.187 0 39.309-16.979 39.309-56.598V56.598C768.748 16.979 752.626 0 729.439 0c-23.187 0-39.309 16.979-39.309 56.598v16.067c0 39.618 16.122 56.597 39.309 56.597zm0-111.005c12.318 0 18.296 11.137 18.296 38.34v16.067c0 27.203-5.978 38.34-18.296 38.34s-18.296-11.137-18.296-38.34V56.598c0-27.204 5.978-38.341 18.296-38.341z"/><path class="st0" d="M.643 157.008v18.44h28.078v107.536h21.013V175.448h28.078v-18.44H.643z"/><path class="st0" d="M109.869 157.008H88.856v125.975h21.013v-56.05h34.599v56.05h21.013V157.008h-21.013v51.668h-34.599v-51.668z"/><path class="st0" d="M187.395 157.008v125.975h63.582v-18.257h-42.569v-37.793h38.041v-18.257h-38.041v-33.228h42.569v-18.44h-63.582z"/><path class="st0" d="M379.04 282.983h20.47l23.368-125.975h-22.1l-13.948 90.009-18.839-90.009h-19.926l-18.839 90.009-13.948-90.009h-22.1l23.368 125.975h20.469l21.013-91.287 21.012 91.287z"/><path class="st0" d="M469.426 284.626c23.187 0 39.309-16.979 39.309-56.598v-16.066c0-39.618-16.122-56.598-39.309-56.598-23.187 0-39.309 16.979-39.309 56.598v16.066c0 39.619 16.122 56.598 39.309 56.598zm0-111.004c12.318 0 18.296 11.137 18.296 38.34v16.066c0 27.203-5.978 38.34-18.296 38.34s-18.296-11.137-18.296-38.34v-16.066c0-27.203 5.978-38.34 18.296-38.34z"/><path class="st0" d="M604.374 282.983l-21.194-54.772c11.231-5.112 17.752-16.249 17.752-33.593 0-25.013-14.673-37.61-38.222-37.61H526.3v125.975h21.013v-51.12h15.76l18.477 51.12h22.824zm-57.061-69.378v-38.34h13.405c12.68 0 19.202 5.112 19.202 19.353 0 14.241-6.521 18.988-19.202 18.988h-13.405z"/><path class="st0" d="M639.331 157.008h-21.013v125.975H681.9v-18.257h-42.569V157.008z"/><path class="st0" d="M728.995 282.983c23.006 0 39.309-15.154 39.309-55.502V212.51c0-40.349-16.303-55.502-39.309-55.502h-36.048v125.975h36.048zm0-18.257H713.96v-89.461h15.035c13.767 0 18.296 11.32 18.296 37.245v14.971c0 25.925-4.529 37.245-18.296 37.245z"/><path class="st0" d="M76.625 40.714C73.183 13.328 59.416 0 39.309 0 16.122 0 0 16.979 0 56.598v16.067c0 39.618 16.122 56.598 39.309 56.598 20.832 0 33.693-12.415 37.316-40.714H56.699c-2.174 15.336-7.065 22.274-17.39 22.274-12.318 0-18.296-11.319-18.296-38.158V56.598c0-27.203 5.978-38.158 18.296-38.158 9.963 0 15.397 6.938 17.39 22.274h19.926z"/><path class="st0" d="M132.777 129.262c23.187 0 39.309-16.979 39.309-56.598V56.598C172.086 16.979 155.964 0 132.777 0 109.59 0 93.468 16.979 93.468 56.598v16.067c.001 39.618 16.123 56.597 39.309 56.597zm0-111.005c12.318 0 18.296 11.137 18.296 38.34v16.067c0 27.203-5.978 38.34-18.296 38.34s-18.296-11.137-18.296-38.34V56.598c.001-27.204 5.979-38.341 18.296-38.341z"/><path class="st0" d="M217.005 1.643h-20.47v125.976h21.013V54.224l20.651 49.112h13.948l20.47-49.66v73.942h21.013V1.643h-20.651l-27.897 71.204-28.077-71.204z"/><path class="st0" d="M322.424 1.643v125.976h63.582v-18.257h-42.569V71.569h38.041V53.311h-38.041V20.083h42.569V1.643h-63.582z"/><path class="st0" d="M474.941 1.643h-21.013v125.976h21.013V1.643z"/><path class="st0" d="M560.801 1.643v75.768L523.847 1.643h-18.658v125.976h21.013V52.946l36.592 74.672h19.02V1.643h-21.013z"/><path class="st0" d="M599.742 1.643v18.44h28.078v107.536h21.013V20.083h28.078V1.643h-77.169z"/><path class="st0" d="M729.439 129.262c23.187 0 39.309-16.979 39.309-56.598V56.598C768.748 16.979 752.626 0 729.439 0c-23.187 0-39.309 16.979-39.309 56.598v16.067c0 39.618 16.122 56.597 39.309 56.597zm0-111.005c12.318 0 18.296 11.137 18.296 38.34v16.067c0 27.203-5.978 38.34-18.296 38.34s-18.296-11.137-18.296-38.34V56.598c0-27.204 5.978-38.341 18.296-38.341z"/><path class="st0" d="M.643 157.008v18.44h28.078v107.536h21.013V175.448h28.078v-18.44H.643z"/><path class="st0" d="M109.869 157.008H88.856v125.975h21.013v-56.05h34.599v56.05h21.013V157.008h-21.013v51.668h-34.599v-51.668z"/><path class="st0" d="M187.395 157.008v125.975h63.582v-18.257h-42.569v-37.793h38.041v-18.257h-38.041v-33.228h42.569v-18.44h-63.582z"/><path class="st0" d="M379.04 282.983h20.47l23.368-125.975h-22.1l-13.948 90.009-18.839-90.009h-19.926l-18.839 90.009-13.948-90.009h-22.1l23.368 125.975h20.469l21.013-91.287 21.012 91.287z"/><path class="st0" d="M469.426 284.626c23.187 0 39.309-16.979 39.309-56.598v-16.066c0-39.618-16.122-56.598-39.309-56.598-23.187 0-39.309 16.979-39.309 56.598v16.066c0 39.619 16.122 56.598 39.309 56.598zm0-111.004c12.318 0 18.296 11.137 18.296 38.34v16.066c0 27.203-5.978 38.34-18.296 38.34s-18.296-11.137-18.296-38.34v-16.066c0-27.203 5.978-38.34 18.296-38.34z"/><path class="st0" d="M604.374 282.983l-21.194-54.772c11.231-5.112 17.752-16.249 17.752-33.593 0-25.013-14.673-37.61-38.222-37.61H526.3v125.975h21.013v-51.12h15.76l18.477 51.12h22.824zm-57.061-69.378v-38.34h13.405c12.68 0 19.202 5.112 19.202 19.353 0 14.241-6.521 18.988-19.202 18.988h-13.405z"/><path class="st0" d="M639.331 157.008h-21.013v125.975H681.9v-18.257h-42.569V157.008z"/><path class="st0" d="M728.995 282.983c23.006 0 39.309-15.154 39.309-55.502V212.51c0-40.349-16.303-55.502-39.309-55.502h-36.048v125.975h36.048zm0-18.257H713.96v-89.461h15.035c13.767 0 18.296 11.32 18.296 37.245v14.971c0 25.925-4.529 37.245-18.296 37.245z"/></svg>