<svg version="1.1" id="レイヤー_1" xmlns="http://www.w3.org/2000/svg" x="0" y="0" viewBox="0 0 98.162 16.875" xml:space="preserve"><style>.st0{fill:#fff}</style><path class="st0" d="M86.162 8.741l-5.615-6h-3.385l5.615 6-5.615 6h3.385l5.615-6z"/><path class="st0" d="M92.162 8.741l-5.615-6h-3.385l5.615 6-5.615 6h3.385l5.615-6z"/><path class="st0" d="M98.162 8.741l-5.615-6h-3.385l5.615 6-5.615 6h3.385l5.615-6z"/><path class="st0" d="M7.426 0v9.922c0 3.187-.681 4.514-2.35 4.514s-2.35-1.328-2.35-4.514V0H0v9.922c0 4.901 2.115 6.953 5.076 6.953 2.938 0 5.076-2.052 5.076-6.977V0H7.426z"/><path class="st0" d="M17.931 10.574c3.079 0 4.959-1.883 4.959-5.311S20.986 0 17.931 0h-4.724v16.657h2.726v-6.084h1.998zM15.934 8.16V2.414h1.622c1.88 0 2.609 1.038 2.609 2.849 0 1.907-.729 2.897-2.609 2.897h-1.622z"/><path class="st0" d="M29.587 16.657c2.985 0 5.1-2.004 5.1-7.339v-1.98c0-5.335-2.115-7.339-5.1-7.339H24.91v16.657h4.677zm0-2.414h-1.951V2.414h1.951c1.786 0 2.374 1.497 2.374 4.925v1.98c0 3.428-.588 4.924-2.374 4.924z"/><path class="st0" d="M38.329 16.657l.823-3.452H43.5l.846 3.452h2.891L42.677 0h-2.679l-4.536 16.657h2.867zm3.032-12.432l1.551 6.566h-3.149l1.598-6.566z"/><path class="st0" d="M46.719 0v2.438h3.643v14.219h2.726V2.438h3.643V0H46.719z"/><path class="st0" d="M58.375 0v16.657h8.249v-2.414h-5.523V9.246h4.935V6.832h-4.935V2.438h5.523V0h-8.249z"/></svg>