<svg xmlns="http://www.w3.org/2000/svg" viewBox="0 0 89.94 24.282"><path data-name="common/header/about.svg" d="M4.16 23.982l1.19-4.908h6.3l1.23 4.908h4.19L10.46.299H6.58L0 23.982h4.16zM8.55 6.306l2.25 9.336H6.24zM20.37.299v23.683h7.01c5.08 0 7.02-3.226 7.02-6.8 0-2.986-1.16-4.839-3.17-5.6 1.53-.755 2.55-2.711 2.55-5.148C33.78 2.35 31.3.29 26.77.29h-6.4zm3.95 13.112h2.38c2.62 0 3.75 1.064 3.75 3.569 0 2.266-1.02 3.57-3.37 3.57h-2.76v-7.139zm0-9.68h2.11c2.83 0 3.4 1.1 3.4 2.952 0 1.957-.81 3.295-2.99 3.295h-2.52V3.731zm20.97 20.56c4.36 0 7.39-3.192 7.39-10.64V10.63c0-7.448-3.03-10.64-7.39-10.64S37.9 3.182 37.9 10.63v3.021c0 7.448 3.03 10.64 7.39 10.64zm0-20.868c2.32 0 3.44 2.093 3.44 7.207v3.021c0 5.114-1.12 7.208-3.44 7.208s-3.44-2.094-3.44-7.208V10.63c0-5.114 1.13-7.207 3.44-7.207zM68.07.299v14.107c0 4.531-.98 6.418-3.4 6.418s-3.41-1.887-3.41-6.418V.299h-3.95v14.107c0 6.968 3.07 9.885 7.36 9.885 4.26 0 7.35-2.917 7.35-9.919V.299h-3.95zm7.36 0v3.467h5.28v20.216h3.95V3.766h5.28V.299H75.43z" fill="#fff" fill-rule="evenodd"/></svg>