<svg xmlns="http://www.w3.org/2000/svg" viewBox="0 0 74 24.313"><path data-name="common/header/home.svg" d="M3.96.319H.01v23.683h3.95V13.465h6.5v10.537h3.95V.319h-3.95v9.714h-6.5V.319zM26.4 24.311c4.36 0 7.39-3.192 7.39-10.64V10.65C33.79 3.202 30.76.01 26.4.01s-7.39 3.192-7.39 10.64v3.021c0 7.448 3.03 10.64 7.39 10.64zm0-20.868c2.31 0 3.44 2.093 3.44 7.207v3.021c0 5.114-1.13 7.208-3.44 7.208s-3.44-2.094-3.44-7.208V10.65c0-5.114 1.12-7.206 3.44-7.206zM42.23.319h-3.85v23.683h3.95v-13.8l3.88 9.233h2.63l3.85-9.336v13.9h3.95V.319h-3.89l-5.24 13.386zm19.82 0v23.683H74V20.57h-8v-7.105h7.15v-3.432H66V3.786h8V.319H62.05z" fill="#fff" fill-rule="evenodd"/></svg>