<svg xmlns="http://www.w3.org/2000/svg" viewBox="0 0 52.81 15.469"><path data-name="common/header/member_0.svg" d="M2.58-.006H0v15.482h7.82v-2.244H2.58V-.006zm9 15.482l.78-3.208h4.12l.8 3.208h2.74L15.7-.006h-2.54l-4.3 15.482h2.72zm2.87-11.555l1.47 6.1h-2.98zm9.4 5.093v6.462h2.58V9.014l3.87-9.02h-2.85l-2.31 6.1-2.32-6.1h-2.85zm8.81-9.02v15.482h7.82v-2.244h-5.23V8.588h4.67V6.344h-4.67V2.26h5.23V-.006h-7.82zm20.15 15.482l-2.6-6.731c1.38-.628 2.18-2 2.18-4.129 0-3.074-1.8-4.622-4.7-4.622h-4.47v15.482h2.58V9.194h1.94l2.27 6.282h2.8zM45.8 6.95V2.238h1.65c1.56 0 2.36.628 2.36 2.378s-.8 2.334-2.36 2.334H45.8z" fill="#fff" fill-rule="evenodd"/></svg>