<svg xmlns="http://www.w3.org/2000/svg" viewBox="0 0 43.56 15.906"><path data-name="common/header/member_1.svg" d="M2.59.212H.01v15.482h7.81V13.45H2.59V.212zm11.29 15.684c2.85 0 4.83-2.087 4.83-6.956V6.966c0-4.869-1.98-6.956-4.83-6.956S9.04 2.097 9.04 6.966V8.94c0 4.869 1.99 6.956 4.84 6.956zm0-13.642c1.51 0 2.24 1.369 2.24 4.712V8.94c0 3.344-.73 4.712-2.24 4.712s-2.25-1.368-2.25-4.712V6.966c0-3.343.73-4.71 2.25-4.71zm16.74 2.76c-.42-3.366-2.12-5-4.59-5-2.85 0-4.83 2.087-4.83 6.956v1.974c0 4.869 1.98 6.956 4.83 6.956 2.56 0 4.14-1.526 4.59-5h-2.45c-.27 1.885-.87 2.738-2.14 2.738-1.51 0-2.25-1.391-2.25-4.69V6.966c0-3.343.74-4.69 2.25-4.69 1.23 0 1.89.853 2.14 2.738h2.45zm12.96 10.68l-4.32-9.289L42.8.212h-2.9l-4.03 7.292V.212h-2.58v15.482h2.58v-3.971l1.65-2.917 3.18 6.888h2.88z" fill="#fff" fill-rule="evenodd"/></svg>