<svg xmlns="http://www.w3.org/2000/svg" viewBox="0 0 41.88 15.906"><path data-name="common/header/member_4.svg" d="M9.41 5.014c-.42-3.366-2.11-5-4.58-5C1.98.014-.01 2.101-.01 6.97v1.974c0 4.869 1.99 6.956 4.84 6.956 2.56 0 4.14-1.526 4.58-5H6.96c-.26 1.885-.87 2.738-2.13 2.738-1.52 0-2.25-1.391-2.25-4.69V6.966c0-3.343.73-4.69 2.25-4.69 1.22 0 1.89.853 2.13 2.738h2.45zm5.23-4.8h-2.58v15.482h2.58v-6.89h4.26v6.888h2.58V.212H18.9v6.35h-4.26V.212zm17.41 0v9.222c0 2.962-.64 4.2-2.22 4.2s-2.23-1.234-2.23-4.2V.214h-2.58v9.222c0 4.555 2 6.462 4.81 6.462 2.78 0 4.81-1.907 4.81-6.484v-9.2h-2.59zm9.74 7.7h-2.65l1.69-2.526a5.065 5.065 0 001.05-2.748 2.326 2.326 0 10-4.63-.026h1.36a1.05 1.05 0 01.9-1.244 1.031 1.031 0 01.88 1.244 3.369 3.369 0 01-.65 1.9l-2.45 3.639v1.073h4.5V7.917z" fill="#fff" fill-rule="evenodd"/></svg>