<svg xmlns="http://www.w3.org/2000/svg" viewBox="0 0 79.66 15.906"><path data-name="common/header/member_2.svg" d="M2.53.212H.01v15.482H2.6v-9.02l2.53 6.036h1.72l2.51-6.1v9.087h2.59V.212H9.41L5.98 8.963zm14.25 15.482l.78-3.208h4.12l.8 3.208h2.74L20.9.212h-2.54l-4.3 15.482h2.72zm2.87-11.555l1.47 6.1h-2.98zm16.08-1.593A4.637 4.637 0 0031.32.01a3.985 3.985 0 00-4.34 4.286c0 2.625 1.33 3.994 3.76 4.689 2.05.584 2.54 1.347 2.54 2.581a1.788 1.788 0 01-1.94 2.064 2.917 2.917 0 01-2.69-1.661l-1.99 1.392a5.268 5.268 0 004.84 2.535 4.144 4.144 0 004.36-4.443c0-2.67-1.2-3.881-3.83-4.622-1.67-.471-2.47-1.054-2.47-2.535 0-1.3.58-2.02 1.82-2.02a2.546 2.546 0 012.43 1.661zm13.31 13.148l-4.32-9.289L48.26.212h-2.89l-4.03 7.292V.212h-2.59v15.482h2.59v-3.971l1.64-2.917 3.19 6.888h2.87zM54.09.212h-2.58v15.482h2.58V.212zm10.56 0v9.312L60.11.212h-2.3v15.482h2.58V6.517l4.5 9.177h2.34V.212h-2.58zm10.44 7.539v2.266h2.09c-.09 2.491-.73 3.613-2.14 3.613-1.51 0-2.24-1.346-2.24-4.69V6.966c0-3.343.73-4.69 2.24-4.69 1.27 0 1.92.943 2.14 2.738h2.45c-.38-3.254-1.98-5-4.59-5-2.85 0-4.83 2.087-4.83 7.068v1.862c0 4.869 1.98 6.956 4.83 6.956 2.83 0 4.61-1.952 4.61-6.956V7.756h-4.56z" fill="#fff" fill-rule="evenodd"/></svg>