<svg xmlns="http://www.w3.org/2000/svg" viewBox="0 0 54.59 15.906"><path data-name="common/header/member_3.svg" d="M4.48 10.04c2.92 0 4.7-1.75 4.7-4.936S7.38.212 4.48.212H.01v15.482h2.58V10.04h1.89zM2.59 7.796v-5.34h1.54c1.78 0 2.47.965 2.47 2.648 0 1.772-.69 2.692-2.47 2.692H2.59zm9.55 7.9l.78-3.208h4.12l.8 3.208h2.74L16.26.214h-2.54L9.43 15.696h2.71zm2.87-11.555l1.47 6.1H13.5zm17.3 11.555l-2.6-6.731c1.38-.628 2.18-2 2.18-4.129 0-3.074-1.8-4.622-4.7-4.622h-4.47v15.482h2.58V9.414h1.94l2.27 6.282h2.8zM25.3 7.17V2.456h1.65c1.56 0 2.36.628 2.36 2.378s-.8 2.334-2.36 2.334H25.3zM34.87.214v15.482h7.82v-2.244h-5.23V8.806h4.67V6.562h-4.67V2.478h5.23V.212h-7.82zm14.88 15.684c2.85 0 4.83-2.087 4.83-6.956V6.966C54.58 2.097 52.6.01 49.75.01s-4.83 2.087-4.83 6.956V8.94c0 4.869 1.98 6.956 4.83 6.956zm0-13.642c1.51 0 2.25 1.369 2.25 4.712v1.974c0 3.344-.74 4.712-2.25 4.712s-2.25-1.368-2.25-4.712V6.966c0-3.343.73-4.71 2.25-4.71z" fill="#fff" fill-rule="evenodd"/></svg>