<svg xmlns="http://www.w3.org/2000/svg" viewBox="0 0 112.62 23.688"><path data-name="common/header/member.svg" d="M3.83-.006H-.01v23.683h3.95v-13.8l3.88 9.233h2.62l3.85-9.336v13.9h3.95V-.006h-3.88L9.11 13.38zm19.82 0v23.683H35.6v-3.432h-8v-7.1h7.15V9.713H27.6V3.466h8V-.001H23.65zm19.99 0h-3.85v23.683h3.95v-13.8l3.88 9.233h2.63l3.84-9.336v13.9h3.95V-.006h-3.88L48.92 13.38zm19.82 0v23.683h7.01c5.08 0 7.02-3.226 7.02-6.8 0-2.986-1.16-4.839-3.17-5.6 1.53-.755 2.55-2.711 2.55-5.148 0-4.084-2.48-6.144-7.01-6.144h-6.4zm3.95 13.112h2.38c2.62 0 3.75 1.064 3.75 3.569 0 2.266-1.02 3.57-3.37 3.57h-2.76v-7.139zm0-9.68h2.11c2.83 0 3.4 1.1 3.4 2.952 0 1.957-.81 3.295-2.99 3.295h-2.52V3.426zm14.4-3.432v23.683h11.95v-3.432h-8v-7.1h7.15V9.713h-7.15V3.466h8V-.001H81.81zm30.82 23.683l-3.99-10.3c2.12-.961 3.34-3.055 3.34-6.315 0-4.7-2.76-7.071-7.18-7.071h-6.85v23.683h3.95v-9.61h2.96l3.48 9.61h4.29zM101.9 10.634V3.426h2.52c2.38 0 3.61.961 3.61 3.639s-1.23 3.569-3.61 3.569h-2.52z" fill="#fff" fill-rule="evenodd"/></svg>