<svg xmlns="http://www.w3.org/2000/svg" viewBox="0 0 59.06 18.406"><path data-name="common/header/menu.svg" d="M2.96-.002H-.01v18.173h3.05V7.583l3.01 7.085h2.02l2.98-7.164v10.667h3.06V-.002H11.1L7.05 10.27zm15.86 0v18.173h9.25v-2.634h-6.19v-5.452h5.53V7.451h-5.53V2.658h6.19v-2.66h-9.25zm21.1 0v10.93L34.55-.002h-2.72v18.173h3.06V7.399l5.32 10.772h2.77V-.002h-3.06zm16.09 0v10.825c0 3.477-.76 4.925-2.63 4.925s-2.63-1.449-2.63-4.925V-.002h-3.06v10.825c0 5.347 2.37 7.585 5.69 7.585 3.29 0 5.69-2.239 5.69-7.612v-10.8h-3.06z" fill="#fff" fill-rule="evenodd"/></svg>