<svg xmlns="http://www.w3.org/2000/svg" viewBox="0 0 84.75 24.312"><path data-name="common/header/music.svg" d="M3.85.306H0v23.683h3.95v-13.8l3.89 9.233h2.62l3.85-9.336v13.9h3.95V.306h-3.88L9.13 13.692zm30.58 0v14.107c0 4.531-.99 6.418-3.4 6.418s-3.41-1.887-3.41-6.418V.306h-3.95v14.107c0 6.968 3.06 9.885 7.36 9.885 4.25 0 7.35-2.917 7.35-9.919V.306h-3.95zm22.17 3.57a7.076 7.076 0 00-6.74-3.879c-4.6 0-6.64 2.986-6.64 6.556 0 4.016 2.04 6.109 5.75 7.174 3.13.892 3.88 2.059 3.88 3.947 0 1.716-.68 3.157-2.96 3.157-2.01 0-3-.858-4.12-2.539l-3.03 2.128a8.033 8.033 0 007.39 3.878c4.56 0 6.67-3.261 6.67-6.8 0-4.084-1.84-5.938-5.85-7.071-2.56-.72-3.78-1.613-3.78-3.878 0-1.991.88-3.089 2.79-3.089 1.87 0 2.86.927 3.71 2.54zm8.85-3.57H61.5v23.683h3.95V.306zm19.31 7.345c-.65-5.148-3.24-7.654-7.02-7.654-4.36 0-7.39 3.192-7.39 10.64v3.021c0 7.448 3.03 10.64 7.39 10.64 3.92 0 6.34-2.334 7.02-7.654h-3.75c-.41 2.883-1.33 4.187-3.27 4.187-2.31 0-3.44-2.128-3.44-7.173v-3.021c0-5.114 1.13-7.173 3.44-7.173 1.88 0 2.9 1.3 3.27 4.187h3.75z" fill="#fff" fill-rule="evenodd"/></svg>